<?xml version="1.0" encoding="utf-8"?>
<!-- Generator: Adobe Illustrator 26.4.1, SVG Export Plug-In . SVG Version: 6.00 Build 0)  -->
<svg version="1.1" id="Layer_2_00000098906493952276212910000016246058987732251280_"
	 xmlns="http://www.w3.org/2000/svg" xmlns:xlink="http://www.w3.org/1999/xlink" x="0px" y="0px" viewBox="0 0 194 42.4"
	 style="enable-background:new 0 0 194 42.4;" xml:space="preserve">
<style type="text/css">
	.st0{fill:#ED1C24;}
</style>
<g id="Layer_1-2">
	<g>
		<polygon class="st0" points="36.3,21.4 36.4,8.8 20.4,24.7 35.1,24.7 27.9,32.3 0,32.3 32.3,0 45.2,0 45.2,32.3 		"/>
		<g>
			<path d="M54.8,31.1v-0.4L66,1.1h7.6l11.2,29.7v0.4h-6.5l-2.2-6.2H63.6l-2.2,6.2L54.8,31.1L54.8,31.1z M65.3,19.9h9L69.8,7.4
				L65.3,19.9z"/>
			<path d="M86.2,31.1V7.5h5.9V11c1.4-2.7,3.4-4,6.1-4c0.8,0,1.5,0.2,2.1,0.5v4.9h-0.3c-0.4-0.1-1-0.2-1.8-0.2
				c-1.9,0-3.4,0.6-4.5,1.9c-1.1,1.3-1.6,2.9-1.6,4.8v12.1L86.2,31.1L86.2,31.1z"/>
			<path d="M112,31.7c-3.6,0-6.6-1.2-8.8-3.5s-3.4-5.3-3.4-8.9s1.2-6.6,3.5-8.9s5.2-3.5,8.8-3.5c2.8,0,5.2,0.7,7.2,2.1v5.3h-0.3
				c-1.7-1.4-3.8-2.1-6.3-2.1c-2.1,0-3.7,0.6-5,1.9c-1.3,1.3-1.9,3-1.9,5s0.6,3.8,1.9,5.1c1.3,1.3,2.9,2,5,2c2.5,0,4.6-0.7,6.3-2.1
				h0.3v5.3C117.2,31,114.8,31.7,112,31.7L112,31.7z"/>
			<path d="M130.9,31.6c-3.2,0-5.8-1.2-7.8-3.5c-1.9-2.4-2.9-5.3-2.9-8.8s1-6.4,2.9-8.7s4.5-3.6,7.8-3.6c1.5,0,3,0.3,4.3,1
				s2.4,1.6,3.1,2.8V7.5h5.9v23.5h-5.9v-3.2c-0.7,1.2-1.8,2.1-3.1,2.8C133.9,31.3,132.5,31.6,130.9,31.6z M132.3,26.3
				c1.9,0,3.4-0.7,4.5-2c1.1-1.4,1.7-3,1.7-5s-0.6-3.6-1.7-5c-1.1-1.3-2.7-2-4.5-2s-3.4,0.7-4.5,2c-1.1,1.4-1.7,3-1.7,5
				s0.6,3.7,1.7,5C129,25.7,130.4,26.3,132.3,26.3z"/>
			<path d="M147.8,31.1V7.5h5.9v3.1c1.5-2.4,3.9-3.7,7.1-3.7c2.4,0,4.5,0.8,6,2.3c1.6,1.5,2.3,3.5,2.3,6v15.9h-5.9V17.2
				c0-1.6-0.4-2.8-1.2-3.7c-0.8-0.9-1.9-1.3-3.4-1.3s-2.7,0.5-3.6,1.4c-0.9,0.9-1.4,2.1-1.4,3.6v13.9L147.8,31.1L147.8,31.1z"/>
			<path d="M183.7,31.7c-3.8,0-6.7-1.1-9-3.4s-3.3-5.3-3.3-9s1.1-6.6,3.3-8.9s5-3.5,8.6-3.5s6.1,1.1,7.9,3.3
				c1.9,2.2,2.8,5.2,2.8,8.8c0,0.7-0.1,1.5-0.2,2.2h-16.4c0.1,1.7,0.9,3,2.2,3.9c1.3,0.9,3,1.4,4.9,1.4c3.1,0,5.9-0.8,8.3-2.3h0.3
				v5.3C190.5,31,187.3,31.7,183.7,31.7L183.7,31.7z M177.4,17h10.8c0-1.6-0.4-2.8-1.3-3.8s-2.1-1.4-3.7-1.4c-1.7,0-3,0.4-4.1,1.3
				C178.1,14.1,177.5,15.3,177.4,17L177.4,17z"/>
		</g>
		<g>
			<path d="M152.2,42.3v-6.1h1.3v2.4h2.6v-2.4h1.3v6.1h-1.3v-2.5h-2.6v2.5H152.2z"/>
			<path d="M163.2,41.5c-0.6,0.6-1.3,0.9-2.2,0.9s-1.6-0.3-2.2-0.9c-0.6-0.6-0.9-1.4-0.9-2.3s0.3-1.7,0.9-2.3s1.3-0.9,2.2-0.9
				s1.6,0.3,2.2,0.9c0.6,0.6,0.9,1.3,0.9,2.3S163.8,40.9,163.2,41.5L163.2,41.5z M161,41.3c0.6,0,1-0.2,1.3-0.6s0.5-0.9,0.5-1.5
				s-0.2-1.1-0.5-1.5s-0.8-0.6-1.3-0.6s-1,0.2-1.3,0.6c-0.3,0.4-0.5,0.8-0.5,1.5s0.2,1.1,0.5,1.5C160,41.1,160.4,41.3,161,41.3
				L161,41.3z"/>
			<path d="M164.7,42.3v-6.1h1.3v5h2.8v1.1H164.7L164.7,42.3z"/>
			<path d="M169.2,42.3v-6.1h2.2c1,0,1.7,0.3,2.3,0.8c0.6,0.5,0.9,1.3,0.9,2.2s-0.3,1.7-0.9,2.2s-1.3,0.8-2.3,0.8
				C171.4,42.3,169.2,42.3,169.2,42.3z M170.4,41.2h0.9c0.6,0,1-0.2,1.4-0.5s0.5-0.8,0.5-1.4s-0.2-1.1-0.5-1.4s-0.8-0.5-1.4-0.5
				h-0.9V41.2L170.4,41.2z"/>
			<path d="M175.1,42.3v-6.1h1.3v6.1H175.1z"/>
			<path d="M177.3,42.3v-6.1h1.2l2.9,4v-4h1.2v6.1h-1.2l-2.9-4.1v4.1H177.3L177.3,42.3z"/>
			<path d="M186.2,42.4c-0.9,0-1.7-0.3-2.2-0.9s-0.8-1.4-0.8-2.3s0.3-1.7,0.9-2.3s1.3-0.9,2.2-0.9c0.9,0,1.6,0.2,2.2,0.6v1.2h-0.1
				c-0.6-0.5-1.2-0.7-2.1-0.7c-0.6,0-1.1,0.2-1.4,0.5c-0.3,0.4-0.5,0.8-0.5,1.5s0.2,1.1,0.5,1.5s0.8,0.6,1.3,0.6
				c0.4,0,0.8-0.1,1.1-0.4c0.3-0.2,0.4-0.6,0.5-1h-2v-1h3.2v0.8c0,0.8-0.2,1.5-0.8,2C187.7,42.2,187.1,42.4,186.2,42.4L186.2,42.4z"
				/>
			<path d="M191.5,42.4c-0.8,0-1.4-0.2-2-0.5v-1.2h0.1c0.6,0.3,1.3,0.5,2.1,0.5c0.3,0,0.6-0.1,0.8-0.2c0.2-0.1,0.3-0.3,0.3-0.5
				c0-0.2-0.1-0.3-0.2-0.4s-0.4-0.2-0.6-0.3l-1-0.2c-1-0.2-1.5-0.8-1.5-1.7c0-0.6,0.2-1.1,0.7-1.4s1.1-0.5,1.8-0.5s1.4,0.2,1.9,0.5
				v1.2h-0.1c-0.6-0.3-1.2-0.5-1.9-0.5c-0.3,0-0.5,0.1-0.8,0.2c-0.2,0.1-0.3,0.3-0.3,0.5c0,0.3,0.3,0.5,0.8,0.7l1,0.2
				c0.5,0.1,0.9,0.3,1.2,0.6s0.4,0.7,0.4,1.1c0,0.4-0.1,0.8-0.4,1.1c-0.2,0.3-0.5,0.5-0.9,0.6C192.3,42.3,191.9,42.4,191.5,42.4
				L191.5,42.4z"/>
		</g>
	</g>
</g>
</svg>
