<?xml version="1.0" encoding="UTF-8"?>
<svg id="Layer_2" data-name="Layer 2" xmlns="http://www.w3.org/2000/svg" viewBox="0 0 193.99 42.43">
  <defs>
    <style>
      .cls-1 {
        fill: #fff;
      }

      .cls-2 {
        fill: #ed1c24;
      }
    </style>
  </defs>
  <g id="Layer_1-2" data-name="Layer 1">
    <g>
      <polygon class="cls-2" points="36.34 21.4 36.37 8.77 20.41 24.71 35.14 24.71 27.88 32.31 0 32.31 32.33 0 45.15 0 45.15 32.31 36.34 21.4"/>
      <g>
        <path class="cls-1" d="M54.82,31.08v-.35L65.99,1.06h7.58l11.17,29.66v.35h-6.52l-2.17-6.16h-12.5l-2.22,6.16h-6.52Zm10.46-11.17h9l-4.48-12.5-4.52,12.5Z"/>
        <path class="cls-1" d="M86.17,31.08V7.54h5.9v3.46c1.36-2.66,3.38-3.99,6.07-3.99,.83,0,1.52,.18,2.08,.53v4.92h-.31c-.44-.15-1.03-.22-1.77-.22-1.89,0-3.38,.63-4.46,1.88-1.08,1.26-1.62,2.87-1.62,4.85v12.1h-5.9Z"/>
        <path class="cls-1" d="M112.01,31.7c-3.61,0-6.55-1.16-8.84-3.48-2.29-2.32-3.44-5.3-3.44-8.93s1.15-6.57,3.46-8.89c2.31-2.32,5.25-3.48,8.82-3.48,2.78,0,5.17,.71,7.18,2.13v5.32h-.35c-1.69-1.39-3.8-2.08-6.34-2.08-2.07,0-3.73,.65-4.99,1.95-1.26,1.3-1.88,2.99-1.88,5.05s.63,3.8,1.88,5.1c1.26,1.3,2.92,1.95,4.99,1.95,2.48,0,4.6-.69,6.34-2.08h.35v5.32c-2.01,1.42-4.4,2.13-7.18,2.13Z"/>
        <path class="cls-1" d="M130.94,31.61c-3.25,0-5.84-1.18-7.76-3.55-1.92-2.36-2.88-5.29-2.88-8.78s.96-6.37,2.88-8.73c1.92-2.36,4.51-3.55,7.76-3.55,1.54,0,2.97,.33,4.3,.98,1.33,.65,2.36,1.58,3.1,2.79v-3.24h5.9V31.08h-5.9v-3.24c-.74,1.21-1.77,2.14-3.1,2.79-1.33,.65-2.76,.98-4.3,.98Zm1.37-5.28c1.89,0,3.41-.68,4.54-2.04,1.14-1.36,1.71-3.03,1.71-5.01s-.58-3.64-1.73-4.99c-1.15-1.34-2.66-2.02-4.52-2.02s-3.35,.67-4.46,2.02c-1.11,1.35-1.66,3.01-1.66,4.99s.55,3.69,1.66,5.03c1.11,1.35,2.59,2.02,4.46,2.02Z"/>
        <path class="cls-1" d="M147.83,31.08V7.54h5.9v3.06c1.51-2.45,3.89-3.68,7.14-3.68,2.45,0,4.46,.77,6.01,2.31,1.55,1.54,2.33,3.53,2.33,5.99v15.87h-5.9v-13.88c0-1.57-.39-2.79-1.18-3.68-.78-.89-1.93-1.33-3.44-1.33s-2.71,.46-3.61,1.37c-.9,.92-1.35,2.13-1.35,3.64v13.88h-5.9Z"/>
        <path class="cls-1" d="M183.7,31.7c-3.75,0-6.74-1.12-8.96-3.37-2.22-2.25-3.33-5.26-3.33-9.04s1.09-6.61,3.26-8.91,5.03-3.46,8.58-3.46,6.07,1.11,7.94,3.33c1.86,2.22,2.79,5.16,2.79,8.82,0,.71-.06,1.45-.18,2.22h-16.36c.12,1.68,.85,2.99,2.19,3.9,1.34,.92,2.96,1.37,4.86,1.37,3.13,0,5.91-.77,8.33-2.31h.31v5.32c-2.63,1.42-5.78,2.13-9.44,2.13Zm-6.3-14.72h10.82c0-1.6-.43-2.85-1.29-3.77-.86-.92-2.08-1.37-3.68-1.37-1.68,0-3.04,.44-4.08,1.33-1.03,.89-1.63,2.16-1.77,3.81Z"/>
      </g>
      <g>
        <path class="cls-1" d="M152.18,42.28v-6.07h1.26v2.44h2.64v-2.44h1.26v6.07h-1.26v-2.53h-2.64v2.53h-1.26Z"/>
        <path class="cls-1" d="M163.22,41.53c-.56,.6-1.3,.9-2.22,.9s-1.65-.3-2.22-.9c-.56-.6-.85-1.36-.85-2.3s.28-1.69,.85-2.28c.57-.59,1.3-.89,2.22-.89s1.65,.29,2.22,.88c.56,.59,.85,1.35,.85,2.28s-.28,1.7-.85,2.3Zm-2.22-.26c.56,0,1-.19,1.31-.57,.31-.38,.47-.87,.47-1.47s-.16-1.08-.47-1.45c-.31-.37-.75-.56-1.31-.56s-1,.19-1.31,.56c-.31,.37-.47,.85-.47,1.45s.16,1.07,.48,1.46c.32,.39,.75,.58,1.31,.58Z"/>
        <path class="cls-1" d="M164.68,42.28v-6.07h1.26v4.98h2.78v1.09h-4.03Z"/>
        <path class="cls-1" d="M169.19,42.28v-6.07h2.2c.97,0,1.74,.27,2.3,.8,.57,.53,.85,1.27,.85,2.22s-.28,1.7-.85,2.24c-.57,.54-1.34,.81-2.3,.81h-2.2Zm1.26-1.09h.94c.59,0,1.04-.18,1.38-.53s.5-.83,.5-1.43-.17-1.07-.5-1.41c-.33-.34-.79-.52-1.38-.52h-.94v3.88Z"/>
        <path class="cls-1" d="M175.15,42.28v-6.07h1.26v6.07h-1.26Z"/>
        <path class="cls-1" d="M177.31,42.28v-6.07h1.18l2.86,4.04v-4.04h1.22v6.07h-1.19l-2.86-4.06v4.06h-1.21Z"/>
        <path class="cls-1" d="M186.25,42.43c-.93,0-1.67-.3-2.23-.89s-.84-1.36-.84-2.3,.28-1.71,.85-2.29c.57-.58,1.32-.87,2.25-.87,.86,0,1.6,.21,2.21,.62v1.21h-.06c-.55-.45-1.24-.67-2.06-.67-.6,0-1.07,.18-1.41,.54-.33,.36-.5,.85-.5,1.47s.16,1.09,.47,1.47c.31,.38,.75,.57,1.31,.57,.45,0,.81-.12,1.09-.37,.28-.24,.43-.58,.46-1.01h-1.96v-1.01h3.18v.75c0,.84-.25,1.51-.76,2.03-.51,.51-1.18,.77-2.01,.77Z"/>
        <path class="cls-1" d="M191.48,42.42c-.75,0-1.43-.15-2.04-.46v-1.16h.07c.62,.32,1.32,.48,2.1,.48,.3,0,.56-.06,.78-.17,.22-.11,.33-.29,.33-.53,0-.18-.08-.32-.24-.42-.16-.1-.37-.18-.64-.26l-.98-.24c-1.02-.25-1.52-.82-1.52-1.7,0-.62,.23-1.09,.7-1.41,.47-.32,1.05-.48,1.76-.48s1.35,.15,1.88,.45v1.16h-.07c-.57-.31-1.21-.47-1.94-.47-.29,0-.54,.06-.75,.17-.21,.11-.32,.28-.32,.51,0,.32,.27,.54,.82,.67l.97,.24c.49,.13,.88,.33,1.17,.61s.43,.65,.43,1.1c0,.42-.12,.77-.36,1.07-.24,.29-.54,.5-.91,.63-.37,.13-.78,.19-1.24,.19Z"/>
      </g>
    </g>
  </g>
</svg>